# Blender v2.79 (sub 0) OBJ File: 'doorframe.obj'
# www.blender.org
mtllib doorframe.mtl
o Cube.001_Cube.002
v 1.000000 0.000000 -0.200000
v 1.000000 -0.000000 0.200000
v 0.800000 -0.000000 0.200000
v 0.800000 0.000000 -0.200000
v 1.000000 3.000000 -0.200000
v -1.000000 3.000000 -0.200000
v -1.000000 3.000000 0.200000
v 0.999999 3.000000 0.200000
v -1.000000 -0.000000 0.200000
v -0.800000 -0.000000 0.200000
v -0.800000 2.800000 0.200000
v 0.800000 2.800000 0.200000
v -1.000000 0.000000 -0.200000
v 0.800000 2.800000 -0.200000
v -0.800000 2.800000 -0.200000
v -0.800000 0.000000 -0.200000
vn 0.0000 -1.0000 -0.0000
vn 0.0000 1.0000 0.0000
vn 1.0000 0.0000 0.0000
vn 0.0000 -0.0000 1.0000
vn -1.0000 0.0000 0.0000
vn 0.0000 0.0000 -1.0000
usemtl Material.001
s 1
f 1//1 2//1 3//1 4//1
f 5//2 6//2 7//2 8//2
f 1//3 5//3 8//3 2//3
f 2//4 8//4 7//4 9//4 10//4 11//4 12//4 3//4
f 9//5 7//5 6//5 13//5
f 5//6 1//6 4//6 14//6 15//6 16//6 13//6 6//6
f 12//5 14//5 4//5 3//5
f 14//1 12//1 11//1 15//1
f 16//1 10//1 9//1 13//1
f 15//3 11//3 10//3 16//3
